<svg xmlns="http://www.w3.org/2000/svg" width="64" height="64" viewBox="0 0 64 64" fill="none">
  <rect width="64" height="64" rx="18" fill="#F5F6F1"/>
  <path d="M32 12C20.954 12 12 20.954 12 32C12 43.046 20.954 52 32 52C35.733 52 39.228 50.978 42.22 49.197L36.728 39.946C35.36 40.626 33.817 41 32.187 41C26.567 41 22.011 36.444 22.011 30.824C22.011 25.204 26.567 20.648 32.187 20.648C37.807 20.648 42.363 25.204 42.363 30.824C42.363 33.88 41.016 36.622 38.88 38.486L44.728 47.409C49.121 43.747 52 38.232 52 32.041C52 20.995 43.046 12.041 32 12.041V12Z" fill="url(#paint0_linear_equim)"/>
  <path d="M29.999 33.866L39.64 48.31C38.096 49.299 36.369 50.025 34.522 50.421L25.466 36.995L29.999 33.866Z" fill="#55694E"/>
  <defs>
    <linearGradient id="paint0_linear_equim" x1="14.936" y1="45.772" x2="49.064" y2="18.27" gradientUnits="userSpaceOnUse">
      <stop stop-color="#EB463E"/>
      <stop offset="1" stop-color="#FFBE0E"/>
    </linearGradient>
  </defs>
</svg>
