<?xml version="1.0" encoding="UTF-8" standalone="no"?>
<!-- Created with Inkscape (http://www.inkscape.org/) -->

<svg
   width="100"
   height="28"
   viewBox="0 0 100 28"
   version="1.1"
   id="svg18379"
   inkscape:version="1.1 (c68e22c387, 2021-05-23)"
   sodipodi:docname="Ethnologue logo.svg"
   xmlns:inkscape="http://www.inkscape.org/namespaces/inkscape"
   xmlns:sodipodi="http://sodipodi.sourceforge.net/DTD/sodipodi-0.dtd"
   xmlns="http://www.w3.org/2000/svg"
   xmlns:svg="http://www.w3.org/2000/svg"
   xmlns:rdf="http://www.w3.org/1999/02/22-rdf-syntax-ns#"
   xmlns:cc="http://creativecommons.org/ns#"
   xmlns:dc="http://purl.org/dc/elements/1.1/">
  <title
     id="title18909">Banco Agrario de Colombia logo</title>
  <sodipodi:namedview
     id="namedview18381"
     pagecolor="#ffffff"
     bordercolor="#111111"
     borderopacity="1"
     inkscape:pageshadow="0"
     inkscape:pageopacity="0"
     inkscape:pagecheckerboard="1"
     inkscape:document-units="px"
     showgrid="false"
     units="px"
     inkscape:zoom="1"
     inkscape:cx="59.5"
     inkscape:cy="16.5"
     inkscape:window-width="1920"
     inkscape:window-height="1009"
     inkscape:window-x="-8"
     inkscape:window-y="-8"
     inkscape:window-maximized="1"
     inkscape:current-layer="layer1"
     width="100px"
     height="99px" />
  <defs
     id="defs18376">
    <filter
       id="filter0_dd_884_21158"
       x="0"
       y="0"
       width="50"
       height="50"
       filterUnits="userSpaceOnUse"
       color-interpolation-filters="sRGB">
      <feFlood
         flood-opacity="0"
         result="BackgroundImageFix"
         id="feFlood42" />
      <feColorMatrix
         in="SourceAlpha"
         type="matrix"
         values="0 0 0 0 0 0 0 0 0 0 0 0 0 0 0 0 0 0 127 0"
         result="hardAlpha"
         id="feColorMatrix44" />
      <feOffset
         dx="3"
         dy="3"
         id="feOffset46" />
      <feGaussianBlur
         stdDeviation="3"
         id="feGaussianBlur48" />
      <feColorMatrix
         type="matrix"
         values="0 0 0 0 0.745098 0 0 0 0 0.745098 0 0 0 0 0.745098 0 0 0 1 0"
         id="feColorMatrix50" />
      <feBlend
         mode="darken"
         in2="BackgroundImageFix"
         result="effect1_dropShadow_884_21158"
         id="feBlend52" />
      <feColorMatrix
         in="SourceAlpha"
         type="matrix"
         values="0 0 0 0 0 0 0 0 0 0 0 0 0 0 0 0 0 0 127 0"
         result="hardAlpha"
         id="feColorMatrix54" />
      <feOffset
         dx="-3"
         dy="-3"
         id="feOffset56" />
      <feGaussianBlur
         stdDeviation="3"
         id="feGaussianBlur58" />
      <feColorMatrix
         type="matrix"
         values="0 0 0 0 1 0 0 0 0 1 0 0 0 0 1 0 0 0 1 0"
         id="feColorMatrix60" />
      <feBlend
         mode="lighten"
         in2="effect1_dropShadow_884_21158"
         result="effect2_dropShadow_884_21158"
         id="feBlend62" />
      <feBlend
         mode="normal"
         in="SourceGraphic"
         in2="effect2_dropShadow_884_21158"
         result="shape"
         id="feBlend64" />
    </filter>
    <clipPath
       id="clip0_884_21158">
      <rect
         x="9"
         y="9"
         width="32"
         height="32"
         rx="4"
         fill="#ffffff"
         id="rect112" />
    </clipPath>
    <filter
       id="filter1_d_884_21158"
       x="29.208401"
       y="18.9167"
       width="12.9166"
       height="12.9167"
       filterUnits="userSpaceOnUse"
       color-interpolation-filters="sRGB">
      <feFlood
         flood-opacity="0"
         result="BackgroundImageFix"
         id="feFlood67" />
      <feColorMatrix
         in="SourceAlpha"
         type="matrix"
         values="0 0 0 0 0 0 0 0 0 0 0 0 0 0 0 0 0 0 127 0"
         result="hardAlpha"
         id="feColorMatrix69" />
      <feOffset
         dy="0.375"
         id="feOffset71" />
      <feGaussianBlur
         stdDeviation="0.5625"
         id="feGaussianBlur73" />
      <feColorMatrix
         type="matrix"
         values="0 0 0 0 0 0 0 0 0 0 0 0 0 0 0 0 0 0 0.22 0"
         id="feColorMatrix75" />
      <feBlend
         mode="normal"
         in2="BackgroundImageFix"
         result="effect1_dropShadow_884_21158"
         id="feBlend77" />
      <feBlend
         mode="normal"
         in="SourceGraphic"
         in2="effect1_dropShadow_884_21158"
         result="shape"
         id="feBlend79" />
    </filter>
    <filter
       id="filter2_d_884_21158"
       x="29.208401"
       y="8.2499399"
       width="12.9166"
       height="12.9167"
       filterUnits="userSpaceOnUse"
       color-interpolation-filters="sRGB">
      <feFlood
         flood-opacity="0"
         result="BackgroundImageFix"
         id="feFlood82" />
      <feColorMatrix
         in="SourceAlpha"
         type="matrix"
         values="0 0 0 0 0 0 0 0 0 0 0 0 0 0 0 0 0 0 127 0"
         result="hardAlpha"
         id="feColorMatrix84" />
      <feOffset
         dy="0.375"
         id="feOffset86" />
      <feGaussianBlur
         stdDeviation="0.5625"
         id="feGaussianBlur88" />
      <feColorMatrix
         type="matrix"
         values="0 0 0 0 0 0 0 0 0 0 0 0 0 0 0 0 0 0 0.22 0"
         id="feColorMatrix90" />
      <feBlend
         mode="normal"
         in2="BackgroundImageFix"
         result="effect1_dropShadow_884_21158"
         id="feBlend92" />
      <feBlend
         mode="normal"
         in="SourceGraphic"
         in2="effect1_dropShadow_884_21158"
         result="shape"
         id="feBlend94" />
    </filter>
    <filter
       id="filter3_d_884_21158"
       x="7.6875"
       y="8.0624399"
       width="26.625"
       height="34.625"
       filterUnits="userSpaceOnUse"
       color-interpolation-filters="sRGB">
      <feFlood
         flood-opacity="0"
         result="BackgroundImageFix"
         id="feFlood97" />
      <feColorMatrix
         in="SourceAlpha"
         type="matrix"
         values="0 0 0 0 0 0 0 0 0 0 0 0 0 0 0 0 0 0 127 0"
         result="hardAlpha"
         id="feColorMatrix99" />
      <feOffset
         dy="0.375"
         id="feOffset101" />
      <feGaussianBlur
         stdDeviation="0.65625"
         id="feGaussianBlur103" />
      <feColorMatrix
         type="matrix"
         values="0 0 0 0 0 0 0 0 0 0 0 0 0 0 0 0 0 0 0.24 0"
         id="feColorMatrix105" />
      <feBlend
         mode="normal"
         in2="BackgroundImageFix"
         result="effect1_dropShadow_884_21158"
         id="feBlend107" />
      <feBlend
         mode="normal"
         in="SourceGraphic"
         in2="effect1_dropShadow_884_21158"
         result="shape"
         id="feBlend109" />
    </filter>
    <filter
       id="filter0_dd_884_21158-0"
       x="0"
       y="0"
       width="50"
       height="50"
       filterUnits="userSpaceOnUse"
       color-interpolation-filters="sRGB">
      <feFlood
         flood-opacity="0"
         result="BackgroundImageFix"
         id="feFlood42-3" />
      <feColorMatrix
         in="SourceAlpha"
         type="matrix"
         values="0 0 0 0 0 0 0 0 0 0 0 0 0 0 0 0 0 0 127 0"
         result="hardAlpha"
         id="feColorMatrix44-1" />
      <feOffset
         dx="3"
         dy="3"
         id="feOffset46-9" />
      <feGaussianBlur
         stdDeviation="3"
         id="feGaussianBlur48-7" />
      <feColorMatrix
         type="matrix"
         values="0 0 0 0 0.745098 0 0 0 0 0.745098 0 0 0 0 0.745098 0 0 0 1 0"
         id="feColorMatrix50-2" />
      <feBlend
         mode="darken"
         in2="BackgroundImageFix"
         result="effect1_dropShadow_884_21158"
         id="feBlend52-1" />
      <feColorMatrix
         in="SourceAlpha"
         type="matrix"
         values="0 0 0 0 0 0 0 0 0 0 0 0 0 0 0 0 0 0 127 0"
         result="hardAlpha"
         id="feColorMatrix54-4" />
      <feOffset
         dx="-3"
         dy="-3"
         id="feOffset56-1" />
      <feGaussianBlur
         stdDeviation="3"
         id="feGaussianBlur58-5" />
      <feColorMatrix
         type="matrix"
         values="0 0 0 0 1 0 0 0 0 1 0 0 0 0 1 0 0 0 1 0"
         id="feColorMatrix60-0" />
      <feBlend
         mode="lighten"
         in2="effect1_dropShadow_884_21158"
         result="effect2_dropShadow_884_21158"
         id="feBlend62-0" />
      <feBlend
         mode="normal"
         in="SourceGraphic"
         in2="effect2_dropShadow_884_21158"
         result="shape"
         id="feBlend64-9" />
    </filter>
    <clipPath
       id="clip0_884_21158-3">
      <rect
         x="9"
         y="9"
         width="32"
         height="32"
         rx="4"
         fill="#ffffff"
         id="rect112-7" />
    </clipPath>
    <filter
       id="filter1_d_884_21158-4"
       x="29.208401"
       y="18.9167"
       width="12.9166"
       height="12.9167"
       filterUnits="userSpaceOnUse"
       color-interpolation-filters="sRGB">
      <feFlood
         flood-opacity="0"
         result="BackgroundImageFix"
         id="feFlood67-7" />
      <feColorMatrix
         in="SourceAlpha"
         type="matrix"
         values="0 0 0 0 0 0 0 0 0 0 0 0 0 0 0 0 0 0 127 0"
         result="hardAlpha"
         id="feColorMatrix69-1" />
      <feOffset
         dy="0.375"
         id="feOffset71-1" />
      <feGaussianBlur
         stdDeviation="0.5625"
         id="feGaussianBlur73-4" />
      <feColorMatrix
         type="matrix"
         values="0 0 0 0 0 0 0 0 0 0 0 0 0 0 0 0 0 0 0.22 0"
         id="feColorMatrix75-3" />
      <feBlend
         mode="normal"
         in2="BackgroundImageFix"
         result="effect1_dropShadow_884_21158"
         id="feBlend77-7" />
      <feBlend
         mode="normal"
         in="SourceGraphic"
         in2="effect1_dropShadow_884_21158"
         result="shape"
         id="feBlend79-9" />
    </filter>
    <filter
       id="filter2_d_884_21158-2"
       x="29.208401"
       y="8.2499399"
       width="12.9166"
       height="12.9167"
       filterUnits="userSpaceOnUse"
       color-interpolation-filters="sRGB">
      <feFlood
         flood-opacity="0"
         result="BackgroundImageFix"
         id="feFlood82-7" />
      <feColorMatrix
         in="SourceAlpha"
         type="matrix"
         values="0 0 0 0 0 0 0 0 0 0 0 0 0 0 0 0 0 0 127 0"
         result="hardAlpha"
         id="feColorMatrix84-5" />
      <feOffset
         dy="0.375"
         id="feOffset86-8" />
      <feGaussianBlur
         stdDeviation="0.5625"
         id="feGaussianBlur88-3" />
      <feColorMatrix
         type="matrix"
         values="0 0 0 0 0 0 0 0 0 0 0 0 0 0 0 0 0 0 0.22 0"
         id="feColorMatrix90-7" />
      <feBlend
         mode="normal"
         in2="BackgroundImageFix"
         result="effect1_dropShadow_884_21158"
         id="feBlend92-9" />
      <feBlend
         mode="normal"
         in="SourceGraphic"
         in2="effect1_dropShadow_884_21158"
         result="shape"
         id="feBlend94-9" />
    </filter>
    <filter
       id="filter3_d_884_21158-0"
       x="7.6875"
       y="8.0624399"
       width="26.625"
       height="34.625"
       filterUnits="userSpaceOnUse"
       color-interpolation-filters="sRGB">
      <feFlood
         flood-opacity="0"
         result="BackgroundImageFix"
         id="feFlood97-5" />
      <feColorMatrix
         in="SourceAlpha"
         type="matrix"
         values="0 0 0 0 0 0 0 0 0 0 0 0 0 0 0 0 0 0 127 0"
         result="hardAlpha"
         id="feColorMatrix99-4" />
      <feOffset
         dy="0.375"
         id="feOffset101-2" />
      <feGaussianBlur
         stdDeviation="0.65625"
         id="feGaussianBlur103-1" />
      <feColorMatrix
         type="matrix"
         values="0 0 0 0 0 0 0 0 0 0 0 0 0 0 0 0 0 0 0.24 0"
         id="feColorMatrix105-0" />
      <feBlend
         mode="normal"
         in2="BackgroundImageFix"
         result="effect1_dropShadow_884_21158"
         id="feBlend107-4" />
      <feBlend
         mode="normal"
         in="SourceGraphic"
         in2="effect1_dropShadow_884_21158"
         result="shape"
         id="feBlend109-1" />
    </filter>
  </defs>
  <g
     inkscape:label="Capa 1"
     inkscape:groupmode="layer"
     id="layer1">
    <g
       id="g41110"
       transform="matrix(0.08004056,0,0,0.08004056,138.38836,22.629078)">
      <path
         id="path10"
         clip-path="url(#SVGID_00000132803911024867366950000017294592350958354089_)"
         style="fill:#5c4738;fill-opacity:1;stroke-width:2.74087"
         class="st2"
         d="m -566.52344,-193.33984 c -3.12459,0 -5.56412,0.82215 -7.3457,2.52148 -1.78156,1.69932 -2.66016,3.72872 -2.66016,6.11328 0,2.38453 0.8786,4.35752 2.66016,5.97461 1.78158,1.61713 4.22111,2.41406 7.3457,2.41406 3.1246,0 5.64384,-0.82436 7.58985,-2.41406 1.94601,-1.5897 2.90625,-3.59008 2.90625,-5.97461 0,-2.38456 -0.98767,-4.41396 -2.90625,-6.11328 -1.94601,-1.67191 -4.46525,-2.52148 -7.58985,-2.52148 z m -613.95506,0.14062 c -2.3847,0 -4.799,0.025 -7.211,0.10742 -2.4393,0.0824 -4.7954,0.22018 -7.0976,0.38477 -2.3024,0.13694 -4.466,0.35883 -6.4668,0.60547 -2.0282,0.24665 -3.8127,0.4916 -5.375,0.73828 v 85.13281 c 2.1379,0.49336 4.4997,0.84513 7.1035,1.0918 2.5765,0.24669 5.1228,0.44114 7.6445,0.55078 2.4942,0.13695 4.8249,0.19336 7.0176,0.19336 h 5.3692 c 4.2484,0 8.4181,-0.49571 12.4472,-1.48242 4.029,-1.01411 7.6174,-2.52248 10.7969,-4.57813 3.1794,-2.05565 5.7007,-4.6876 7.5918,-7.94922 1.8639,-3.26163 2.8262,-7.09691 2.8262,-11.53711 0,-3.37128 -0.4978,-6.27345 -1.4297,-8.74023 -0.9594,-2.46679 -2.2462,-4.5799 -3.8906,-6.30664 -1.672,-1.72676 -3.5885,-3.07187 -5.8086,-4.0586 -2.2201,-0.98668 -4.5508,-1.69821 -7.0176,-2.10937 v -0.73828 c 2.7956,-0.65776 5.177,-1.64913 7.1504,-3.01953 1.9734,-1.37042 3.5636,-2.90203 4.7969,-4.6836 1.2334,-1.78153 2.1119,-3.7293 2.6601,-5.86718 0.5208,-2.13787 0.7988,-4.27423 0.7988,-6.41211 0,-4.27574 -0.9059,-7.80979 -2.6875,-10.60547 -1.809,-2.76828 -4.2234,-4.96308 -7.2109,-6.52539 -2.9876,-1.56224 -6.3816,-2.65678 -10.2188,-3.25977 -3.8371,-0.63041 -7.7599,-0.93164 -11.789,-0.93164 z m 342.71483,0.59961 -31.08008,86.94141 h 16.91016 l 6.52539,-19.10547 h 26.53125 l 6.8789,19.10547 h 17.76172 l -31.08008,-86.94141 z m -342.49413,13.5957 c 1.8911,0 3.701,0.16515 5.4277,0.49414 1.7268,0.3291 3.2878,0.9063 4.6309,1.70118 1.3429,0.79482 2.4373,1.91666 3.2597,3.28711 0.8222,1.39784 1.2364,3.15122 1.2364,5.26171 0,3.17941 -1.1511,5.75712 -3.3985,7.70313 -2.275,1.94601 -4.9651,3.39805 -8.0898,4.38476 -0.9867,0.16456 -2.2446,0.27708 -3.752,0.35938 -1.5074,0.0549 -2.8528,0.10742 -4.0039,0.10742 h -5.4238 v -22.83203 c 0.9867,-0.16454 2.3826,-0.27709 4.1914,-0.35937 1.8089,-0.0549 3.784,-0.10743 5.9219,-0.10743 z m 348.06249,7.86524 h 0.59961 l 2.60742,13.57031 6.41211,19.23828 h -18.5 l 6.27344,-19.13086 z m -149.15821,2.11328 c -8.96253,0 -15.78968,2.82455 -20.47658,8.44336 -4.6869,5.64616 -7.0176,13.67253 -7.0176,24.11523 0,4.85134 0.4703,9.29514 1.4297,13.32422 0.9592,4.02907 2.493,7.45418 4.6309,10.30469 2.1379,2.8505 4.90202,5.04512 8.32812,6.60742 3.42609,1.53488 7.59384,2.32813 12.52734,2.32813 3.70018,0 7.28857,-0.49194 10.79687,-1.42383 3.48087,-0.95929 6.47466,-2.33556 8.94141,-4.14453 l -3.8125,-12.14063 c -1.48017,0.98672 -3.17712,1.83626 -5.06836,2.52149 -1.89115,0.68522 -4.19862,1.04492 -6.91211,1.04492 -2.46675,0 -4.63043,-0.4645 -6.46679,-1.42383 -1.83637,-0.9593 -3.34499,-2.24806 -4.4961,-3.89258 -1.15111,-1.64452 -1.99861,-3.567 -2.57422,-5.78711 -0.57561,-2.24749 -0.85156,-4.65977 -0.85156,-7.29101 0,-6.41361 1.15481,-11.07118 3.45703,-14.00391 2.30232,-2.93273 5.67307,-4.38476 10.11328,-4.38476 2.38464,0 4.49557,0.24474 6.35938,0.73828 1.8637,0.49333 3.72409,1.1795 5.61523,2.08398 l 3.83789,-13.07422 c -2.22011,-1.12377 -4.71619,-2.08028 -7.45703,-2.82031 -2.74093,-0.76743 -6.38187,-1.125 -10.9043,-1.125 z m 53.20118,0 c -9.2093,0 -16.36287,2.82455 -21.46094,8.44336 -5.09797,5.64616 -7.65039,13.67253 -7.65039,24.11523 0,4.85134 0.57721,9.29514 1.75586,13.32422 1.17855,4.02907 2.98831,7.45418 5.42773,10.30469 2.43937,2.8505 5.45044,5.04512 9.06836,6.60742 3.61796,1.53488 7.89848,2.32813 12.83203,2.32813 9.20931,0 16.33172,-2.82263 21.40235,-8.44141 5.07057,-5.64619 7.59179,-13.68034 7.59179,-24.12305 0,-4.85133 -0.59877,-9.28929 -1.77734,-13.31836 -1.20598,-4.02907 -2.99041,-7.45419 -5.375,-10.30468 -2.38453,-2.85048 -5.37034,-5.04323 -8.98828,-6.60547 -3.61795,-1.53493 -7.89262,-2.33008 -12.82617,-2.33008 z m 411.81445,0 c -9.2093,0 -16.36292,2.82455 -21.46094,8.44336 -5.098,5.64616 -7.65039,13.67253 -7.65039,24.11523 0,4.85134 0.60471,9.29514 1.75586,13.32422 1.17859,4.02907 2.99032,7.45418 5.42969,10.30469 2.43933,2.8505 5.4504,5.04512 9.06836,6.60742 3.61791,1.53488 7.8965,2.32813 12.83008,2.32813 9.20927,0 16.33173,-2.82263 21.40234,-8.44141 5.0706,-5.64619 7.5918,-13.68034 7.5918,-24.12305 0,-4.85133 -0.59877,-9.28929 -1.77735,-13.31836 -1.20601,-4.02907 -2.99048,-7.45419 -5.375,-10.30468 -2.38455,-2.85048 -5.37033,-5.04323 -8.98828,-6.60547 -3.61795,-1.53493 -7.89262,-2.33008 -12.82617,-2.33008 z m -522.10741,0.0293 c -4.9336,0 -8.9633,0.98753 -12.0879,2.96093 -3.1247,1.97344 -5.6187,4.27306 -7.5098,6.9043 h -0.4941 l -1.8359,-8.14258 h -12.7188 v 61.66992 h 16.0332 v -39.96093 c 0.9046,-2.63121 2.3855,-4.8259 4.4961,-6.60743 2.083,-1.78156 4.6607,-2.65429 7.7031,-2.65429 3.4535,0 5.9204,1.09238 7.3457,3.3125 1.4527,2.22012 2.1621,5.84164 2.1621,10.85742 v 35.02539 0.0273 h 16.0059 v -38.37109 c 0,-4.76911 -0.4083,-8.76766 -1.2305,-12.0293 -0.8223,-3.23423 -2.0547,-5.81192 -3.6992,-7.70312 -1.6445,-1.89119 -3.6485,-3.23632 -6.0332,-4.05859 -2.3845,-0.82224 -5.0943,-1.23047 -8.1367,-1.23047 z m 276.77147,0.21875 c -10.03056,3.9e-4 -17.67931,2.85026 -22.9414,8.52343 -5.26247,5.6462 -7.89063,14.00713 -7.89063,25.02539 0,10.52494 1.94193,18.25199 5.86133,23.18555 3.89203,4.93355 9.83855,7.40235 17.81445,7.40235 7.31811,0 12.41701,-1.94789 15.29492,-5.8125 h 0.49219 v 3.94531 c -4e-5,4.35798 -1.01281,7.759904 -3.01367,10.171872 -2.00081,2.439358 -5.81099,3.644532 -11.40234,3.644532 -3.70016,0 -6.8261,-0.357618 -9.32032,-1.097656 -2.52158,-0.740038 -4.71427,-1.480667 -6.60547,-2.220704 l -3.31445,12.691407 c 1.72676,0.904483 4.27902,1.779318 7.70508,2.601562 3.42608,0.822261 8.08365,1.238281 14.00391,1.238281 8.68852,0 15.48462,-2.140386 20.33593,-6.361328 4.85135,-4.220919 7.29102,-10.828402 7.29102,-19.791016 h -0.0273 v -59.44726 c -2.63123,-0.98671 -6.03322,-1.83419 -10.17188,-2.57422 -4.1382,-0.76734 -8.84776,-1.12491 -14.10938,-1.125 z m 67.1211,0.13476 c -3.2068,0 -5.99823,0.82228 -8.38282,2.4668 -2.38452,1.64451 -4.27795,3.97522 -5.67578,7.01758 h -0.49219 l -1.86132,-8.14063 h -12.44727 v 61.66797 h 16.0332 v -39.84961 c 0.65783,-2.38453 1.94458,-4.3323 3.89063,-5.86719 1.91858,-1.50747 4.33304,-2.27539 7.21094,-2.27539 2.05568,0 4.35722,0.46662 6.90625,1.3711 l 2.08203,-15.02149 c -2.71344,-0.90447 -5.1258,-1.36914 -7.26367,-1.36914 z m 104.45703,0 c -3.2068,0 -6.00216,0.82228 -8.38672,2.4668 -2.38455,1.64451 -4.27794,3.97522 -5.67578,7.01758 h -0.49219 l -1.86328,-8.14063 h -12.44531 v 61.66797 h 16.0371 v -39.84961 c 0.6578,-2.38453 1.94657,-4.3323 3.89258,-5.86719 1.91862,-1.50747 4.3272,-2.27539 7.20508,-2.27539 2.05567,0 4.35726,0.46662 6.90625,1.3711 l 2.08789,-15.02149 c -2.71344,-0.90447 -5.12775,-1.36914 -7.26562,-1.36914 z m -518.1621,0.11133 c -4.9062,0 -9.6475,0.40807 -14.1699,1.28516 -4.5225,0.84967 -8.4122,2.03167 -11.7012,3.51171 l 3.8105,12.03516 c 2.3023,-1.06892 5.2317,-1.94962 8.8223,-2.60742 3.5632,-0.65783 6.9651,-0.98633 10.1719,-0.98633 4.2758,0 7.042,1.01481 8.2754,3.01563 1.2333,2.00086 1.5599,5.31331 0.9843,9.91796 -5.4269,-0.24667 -10.3567,-0.0776 -14.7421,0.55274 -4.3853,0.603 -8.1978,1.72279 -11.3496,3.3125 -3.1521,1.58969 -5.5918,3.67547 -7.2637,6.2793 -1.672,2.60383 -2.5215,5.78402 -2.5215,9.5664 0,2.71347 0.4117,5.15302 1.3437,7.34571 0.9319,2.1927 2.1934,4.08411 3.8379,5.67382 1.6445,1.58971 3.6195,2.82214 5.9219,3.69922 2.2748,0.84967 4.878,1.28907 7.7559,1.28907 4.6047,0 8.3582,-0.93512 11.291,-2.77149 2.9327,-1.86378 5.2069,-4.05255 6.8515,-6.60156 h 0.6055 l 2.6016,8.49609 h 13.0722 c -0.9867,-2.96014 -1.6166,-6.11519 -1.8632,-9.43164 -0.2467,-3.34384 -0.3537,-6.77093 -0.2989,-10.30664 0.055,-3.53569 0.1908,-7.12413 0.4375,-10.79687 0.2467,-3.64535 0.3536,-7.29221 0.3536,-10.91016 0,-3.28903 -0.3538,-6.24962 -1.0391,-8.88086 -0.7126,-2.6038 -1.9199,-4.87443 -3.5918,-6.76563 -1.6994,-1.89119 -3.9737,-3.34323 -6.8516,-4.38476 -2.9053,-1.01411 -6.4684,-1.53711 -10.7441,-1.53711 z m 453.64061,0 c -4.90615,0 -9.64753,0.40807 -14.16992,1.28516 -4.52247,0.84967 -8.41408,2.03167 -11.70312,3.51171 l 3.8125,12.03516 c 2.30232,-1.06892 5.23174,-1.94962 8.82226,-2.60742 3.56311,-0.65783 6.96309,-0.98633 10.16992,-0.98633 4.27575,0 7.04396,1.01481 8.27735,3.01563 1.2334,2.00086 1.55996,5.31331 0.98437,9.91796 -5.42687,-0.24667 -10.35682,-0.0776 -14.74219,0.55274 -4.38539,0.603 -8.19762,1.72279 -11.3496,3.3125 -3.15202,1.58969 -5.59177,3.67547 -7.26368,6.2793 -1.67197,2.60383 -2.52148,5.78402 -2.52148,9.5664 0,2.71347 0.41185,5.15302 1.34375,7.34571 0.9319,2.1927 2.19337,4.08411 3.83789,5.67382 1.64451,1.58971 3.61757,2.82214 5.91992,3.69922 2.27489,0.84967 4.87989,1.28907 7.75781,1.28907 4.60463,0 8.35634,-0.93512 11.28907,-2.77149 2.93272,-1.86378 5.209,-4.05255 6.85351,-6.60156 h 0.60352 l 2.60156,8.49609 h 13.07813 c -0.98672,-2.96014 -1.62051,-6.11519 -1.86719,-9.43164 -0.24665,-3.34384 -0.35566,-6.77093 -0.30078,-10.30664 0.0549,-3.53569 0.19298,-7.12413 0.43945,-10.79687 0.24664,-3.64535 0.35937,-7.29221 0.35937,-10.91016 0,-3.28903 -0.35969,-6.24962 -1.04492,-8.88086 -0.71261,-2.6038 -1.91988,-4.87443 -3.59179,-6.76563 -1.69933,-1.89119 -3.97366,-3.34323 -6.85157,-4.38476 -2.90535,-1.01411 -6.46838,-1.53711 -10.74414,-1.53711 z m 80.44336,1.23242 v 61.66797 h 16.03711 v -61.66797 z m -353.97851,11.86719 c 4.52244,0 7.72794,1.75543 9.61914,5.23633 1.86378,3.5083 2.82226,8.08423 2.82226,13.75781 0,6.57807 -1.01273,11.37368 -3.06836,14.41602 -2.05564,3.06979 -5.17949,4.58203 -9.37304,4.58203 -2.22008,0 -4.13882,-0.47038 -5.72852,-1.42969 -1.6171,-0.9319 -2.90393,-2.2713 -3.89062,-3.99805 -0.98675,-1.72673 -1.7293,-3.7582 -2.22266,-6.06054 -0.49336,-2.30231 -0.73828,-4.82364 -0.73828,-7.53711 0,-6.74252 1.09243,-11.59074 3.3125,-14.52344 2.24754,-2.96015 5.32075,-4.44336 9.26758,-4.44336 z m 411.81445,0 c 4.52243,0 7.72795,1.75543 9.61914,5.23633 1.86377,3.5083 2.82227,8.08423 2.82227,13.75781 0,6.57807 -1.01273,11.37368 -3.06836,14.41602 -2.05564,3.06979 -5.17953,4.58203 -9.37305,4.58203 -2.22012,0 -4.13883,-0.47038 -5.72852,-1.42969 -1.61709,-0.9319 -2.90391,-2.2713 -3.89062,-3.99805 -0.98672,-1.72673 -1.7293,-3.7582 -2.22266,-6.06054 -0.49336,-2.30231 -0.73828,-4.82364 -0.73828,-7.53711 0,-6.74252 1.12176,-11.59074 3.31445,-14.52344 2.24753,-2.96015 5.3188,-4.44336 9.26563,-4.44336 z m -246.54297,0.21875 c 3.75496,0 6.93539,0.52093 9.48438,1.58984 v 27.79493 c -0.90447,2.79567 -2.21869,4.87558 -3.89063,6.27343 -1.67194,1.39783 -4.08635,2.08399 -7.21094,2.08399 -3.70019,0 -6.52269,-1.56105 -8.49609,-4.65821 -1.97343,-3.1246 -2.96094,-7.70258 -2.96094,-13.70507 0,-6.74252 1.15082,-11.67829 3.45313,-14.74805 2.30233,-3.09718 5.50977,-4.63086 9.62109,-4.63086 z m -427.43754,12.36133 h 8.9883 c 2.1379,0 4.2761,0.11266 6.4141,0.35937 2.1379,0.24668 4.0604,0.7929 5.7871,1.64258 1.7268,0.84966 3.1224,2.05691 4.1914,3.5918 1.0415,1.5623 1.5898,3.67331 1.5898,6.35937 0,2.11046 -0.4664,3.94754 -1.3711,5.48242 -0.9319,1.53489 -2.1117,2.81987 -3.5917,3.83399 -1.48,1.01412 -3.2047,1.75468 -5.1231,2.24805 -1.9186,0.49335 -3.9189,0.73828 -5.9746,0.73828 -0.8221,0 -1.7847,1.9e-4 -2.8262,-0.0274 -1.0964,-0.0276 -2.1655,-0.0526 -3.207,-0.10742 -1.0415,-0.0548 -2.0019,-0.1092 -2.9063,-0.19141 -0.9045,-0.0823 -1.5595,-0.19492 -1.9707,-0.35937 z m 84.6192,9.96289 c 1.223,0.0173 2.4735,0.0856 3.748,0.20898 v 8.0293 c -0.9045,1.64451 -2.306,3.20559 -4.1972,4.63086 -1.8912,1.45265 -4.4378,2.16797 -7.6446,2.16797 -2.3846,0 -4.2781,-0.63367 -5.6211,-1.92188 -1.343,-1.28819 -2.0293,-3.06682 -2.0293,-5.36914 0,-1.64452 0.521,-2.98965 1.5899,-4.05859 1.0689,-1.06894 2.5231,-1.8912 4.332,-2.4668 1.8089,-0.57557 3.8949,-0.96055 6.2246,-1.125 1.1786,-0.0822 2.3746,-0.11285 3.5977,-0.0957 z m 453.64061,0 c 1.22313,0.0173 2.47352,0.0856 3.74804,0.20898 v 8.0293 c -0.90448,1.64451 -2.30607,3.20559 -4.19726,4.63086 -1.8912,1.45265 -4.4377,2.16797 -7.64453,2.16797 -2.38455,0 -4.27808,-0.63367 -5.6211,-1.92188 -1.34303,-1.28819 -2.02343,-3.06682 -2.02344,-5.36914 0,-1.64452 0.51503,-2.98965 1.58399,-4.05859 1.06892,-1.06894 2.52112,-1.8912 4.33008,-2.4668 1.80895,-0.57557 3.89686,-0.96055 6.22656,-1.125 1.17862,-0.0822 2.37456,-0.11285 3.59766,-0.0957 z m -356.93361,49.437498 c -4.6046,0 -9.2059,0.767909 -13.8105,2.275391 -4.6047,1.53489 -8.7724,4.056209 -12.5274,7.537109 -3.755,3.508314 -6.7971,8.109551 -9.1269,13.810547 -2.3296,5.700999 -3.5118,12.800259 -3.5118,21.269531 0,8.14037 1.0419,15.074396 3.1524,20.775391 2.0831,5.728407 4.9076,10.3606379 8.4434,13.9511718 3.5357,3.56312711 7.6198,6.1661673 12.2792,7.7558593 4.6595,1.6171134 9.5621,2.4140625 14.7422,2.4140625 4.2758,0 8.4709,-0.4140701 12.52738,-1.2363281 4.08391,-0.822262 7.42736,-2.1616007 10.0586,-4.0253906 l -3.45313,-13.7304689 c -1.89119,1.151159 -4.10913,2.107622 -6.6582,2.8476564 -2.54897,0.7400379 -5.67485,1.0976562 -9.37505,1.0976562 -3.9469,0 -7.4285,-0.7153215 -10.416,-2.1679686 -3.0149,-1.452666 -5.5363,-3.450878 -7.5371,-6.054688 -2.0009,-2.603823 -3.5055,-5.727632 -4.4922,-9.40039 -0.9868,-3.672758 -1.4824,-7.733639 -1.4824,-12.173828 0,-10.223425 2.0546,-17.760002 6.2207,-22.611329 4.166,-4.851326 9.6518,-7.287109 16.4766,-7.287109 3.7002,0 6.8239,0.188475 9.42771,0.599609 2.5764,0.411125 4.82165,1.072078 6.71289,1.976563 l 3.31836,-14.308594 c -2.22008,-0.904487 -5.04275,-1.672282 -8.4414,-2.330078 -3.4261,-0.657814 -7.59376,-0.984375 -12.52736,-0.984375 z m 371.16798,0.353516 c -3.1246,0 -5.56417,0.822146 -7.3457,2.521484 -1.78157,1.699341 -2.66016,3.728723 -2.66016,6.113281 0,2.384562 0.87859,4.357496 2.66016,5.97461 1.78153,1.617117 4.2211,2.414062 7.3457,2.414062 3.12459,0 5.64383,-0.824355 7.58984,-2.414062 1.94602,-1.589704 2.90821,-3.590048 2.90821,-5.97461 0,-2.384558 -0.98958,-4.41394 -2.90821,-6.113281 -1.94601,-1.671932 -4.46525,-2.521484 -7.58984,-2.521484 z m -276.55469,1.34375 V -7.75 c 0,5.0157783 1.23246,8.63159606 3.69922,10.796875 2.46676,2.1652782 6.02992,3.265625 10.7168,3.265625 2.8779,0 5.67523,-0.3324274 8.38867,-0.9902344 2.74086,-0.657793 4.74491,-1.31289 6.06055,-1.9707031 l -1.72852,-12.5800781 c -1.39786,0.575572 -2.5759,0.960552 -3.50781,1.125 -0.95929,0.1644411 -1.91953,0.2460937 -2.90625,0.2460937 -1.67194,0 -2.85176,-0.6883451 -3.5918,-1.9765625 -0.74004,-1.2881996 -1.09765,-3.3955306 -1.09765,-6.2734376 v -65.646484 z m -253.60939,0.02734 v 25.02539 c -1.6446,-0.657793 -3.291,-1.122321 -4.9355,-1.423828 -1.6445,-0.301494 -3.7263,-0.439453 -6.2754,-0.439453 -9.2093,0 -16.1996,2.931494 -20.9688,8.769531 -4.7692,5.838037 -7.1523,14.035631 -7.1523,24.560547 0,10.853829 2.1383,18.8258114 6.4141,23.9238281 4.2757,5.0980024 10.2785,7.6503906 18.0078,7.6503907 4.1935,0 7.8345,-0.8805615 10.9043,-2.6621094 3.0972,-1.7541544 5.4551,-4.08106034 7.0996,-6.9589844 h 0.498 l 2.2149,8.0039062 h 11.4882 c -0.6853,-4.19351269 -1.0408,-8.003535 -1.123,-11.4570312 -0.082,-3.453493 -0.1133,-6.909788 -0.1133,-10.363281 h -0.027 v -64.628906 z m 454.92971,0 V 1.8964844 c 2.22011,1.0689346 5.50729,2.0565815 9.86523,2.90625 4.358,0.849669 9.1809,1.2890625 14.44336,1.2890625 9.53823,0 17.02414,-2.8789528 22.50586,-8.6347657 5.45433,-5.7558304 8.18945,-14.1709832 8.18945,-25.2714842 0,-10.360468 -1.96931,-18.087675 -5.86133,-23.130859 -3.91945,-5.070606 -9.56449,-7.591797 -16.96484,-7.591797 -3.31642,0 -6.30605,0.573437 -9.01953,1.724609 -2.71344,1.151162 -4.93344,2.716037 -6.66016,4.689453 h -0.49218 v -29.603515 z m -398.19731,22.916015 c -9.3737,0 -16.6595,2.709805 -21.8398,8.136719 -5.1528,5.426899 -7.7578,13.568064 -7.7578,24.421875 0,10.113792 2.3015,18.0917626 6.9062,23.8749999 4.6046,5.7832235 11.8964,8.6894531 21.8457,8.6894531 4.7691,0 9.2634,-0.6588559 13.5118,-2.0292969 4.2483,-1.3430175 7.5917,-3.0148463 10.0586,-4.98828122 l -5.2891,-10.49804688 c -1.3978,1.06893 -3.4546,2.1108199 -6.1133,3.1523438 -2.6861,1.0141204 -5.7029,1.5371093 -9.0742,1.5371093 -5.4269,0 -9.3694,-1.3199412 -11.7813,-3.9511721 -2.412,-2.631234 -3.7572,-6.522884 -4.0039,-11.703125 h 36.9746 c 0.4112,-2.137869 0.7124,-4.192595 0.9317,-6.166015 0.1918,-2.000845 0.2988,-3.835766 0.2988,-5.5625 0,-4.769117 -0.7116,-8.773666 -2.1094,-11.980469 -1.3979,-3.20682 -3.2328,-5.753335 -5.5351,-7.644531 -2.3023,-1.891197 -4.9364,-3.234379 -7.8965,-4.056641 -2.9602,-0.822258 -6.0023,-1.232422 -9.127,-1.232422 z m 156.31645,0.02734 c -9.20933,0 -16.36483,2.822634 -21.46289,8.441406 -5.098,5.646179 -7.64844,13.674497 -7.64844,24.117188 0,4.851344 0.60467,9.295136 1.75586,13.324218 1.17855,4.0290653 2.98837,7.4541742 5.42773,10.3046879 2.43938,2.85049953 5.45045,5.0431724 9.06836,6.6054687 3.61795,1.53489 7.89848,2.3300781 12.83203,2.3300782 9.2093,0 16.33174,-2.8245881 21.40235,-8.4433594 5.0706,-5.6461959 7.58984,-13.6783874 7.58984,-24.1210934 0,-4.851326 -0.59872,-9.289296 -1.77734,-13.31836 -1.20597,-4.029083 -2.98854,-7.45614 -5.37305,-10.30664 -2.38456,-2.850499 -5.37033,-5.043186 -8.98828,-6.605469 -3.61796,-1.534889 -7.89261,-2.328125 -12.82617,-2.328125 z m 102.47656,0 c -9.20931,0 -16.36295,2.822634 -21.46094,8.441406 -5.09799,5.646179 -7.64453,13.674497 -7.64453,24.117188 0,4.851344 0.60467,9.295136 1.75586,13.324218 1.17855,4.0290653 2.98251,7.4541742 5.42188,10.3046879 2.43933,2.85049953 5.45625,5.0431724 9.07421,6.6054687 3.61795,1.53489 7.89262,2.3300781 12.82618,2.3300782 9.20929,0 16.33759,-2.8245881 21.4082,-8.4433594 5.07059,-5.6461959 7.5918,-13.6783874 7.5918,-24.1210934 0,-4.851326 -0.60463,-9.289296 -1.78321,-13.31836 -1.20597,-4.029083 -2.98459,-7.45614 -5.36914,-10.30664 -2.38456,-2.850499 -5.37619,-5.043186 -8.99414,-6.605469 -3.61794,-1.534889 -7.89263,-2.328125 -12.82617,-2.328125 z m 73.37695,0.02734 c -4.60467,0 -8.38961,0.985564 -11.29492,2.958984 -2.90533,1.97342 -5.31388,4.275019 -7.20508,6.90625 h -0.49804 l -1.86329,-8.142578 h -12.4414 V 4.6367188 h 16.0332 V -36.449219 c 0.90448,-2.384558 2.21855,-4.353863 3.94531,-5.861328 1.72671,-1.507482 4.00311,-2.27539 6.79883,-2.275391 3.37126,0 5.58928,1.174053 6.65821,3.558594 1.06895,2.384558 1.61718,6.414302 1.61718,12.087891 V 4.609375 h 16.06641 v -40.455078 c 0.82224,-2.713458 2.05262,-4.84981 3.75195,-6.412109 1.69932,-1.562298 3.97366,-2.355469 6.85156,-2.355469 3.53572,0 5.81198,1.232581 6.85352,3.644531 1.0141,2.411969 1.53516,6.054923 1.53516,10.90625 V 4.6367188 h 16.0332 V -32.365234 c 0,-5.180241 -0.38496,-9.4549 -1.125,-12.826172 -0.74004,-3.371254 -1.89097,-6.055747 -3.39844,-8.083985 -1.53489,-2.00083 -3.50798,-3.427741 -5.91992,-4.25 -2.43937,-0.822261 -5.36877,-1.230468 -8.82227,-1.230468 -4.22094,0 -7.78403,0.956459 -10.74414,2.847656 -2.96015,1.891196 -5.39981,4.441634 -7.29101,7.648437 -1.39783,-3.782393 -3.37297,-6.498201 -5.86719,-8.08789 -2.49414,-1.617113 -5.72699,-2.408203 -9.67383,-2.408203 z m 190.78906,0.464843 c -4.90611,0 -9.64749,0.408095 -14.16992,1.285157 -4.52242,0.849687 -8.41213,2.03166 -11.70117,3.511718 l 3.80664,12.033203 c 2.30235,-1.068936 5.23564,-1.947671 8.82617,-2.605468 3.56314,-0.657814 6.95918,-0.986328 10.16602,-0.986328 4.27575,0 7.0479,1.012839 8.28125,3.013672 1.23344,2.000825 1.56194,5.31527 0.98633,9.919921 -5.4269,-0.24668 -10.36459,-0.07766 -14.75,0.552735 -4.38538,0.602997 -8.18982,1.722794 -11.3418,3.3125 -3.15198,1.589708 -5.59367,3.675473 -7.26562,6.279297 -1.67194,2.603824 -2.52149,5.784013 -2.52149,9.566406 0,2.7134544 0.41186,5.1530174 1.34375,7.345703 0.93191,2.1927034 2.19337,4.08412133 3.83789,5.67382812 1.64452,1.58970638 3.61957,2.82215788 5.92188,3.69921878 2.27494,0.849669 4.87407,1.2890625 7.75195,1.2890625 4.60467,0 8.3622,-0.9351052 11.29492,-2.7714844 2.93269,-1.86378914 5.20705,-4.0525524 6.85156,-6.6015625 h 0.60547 l 2.60157,8.4960937 h 13.07226 c -0.98672,-2.9601449 -1.6166,-6.1151893 -1.86328,-9.4316406 -0.24664,-3.3438476 -0.35371,-6.7709236 -0.29883,-10.3066406 0.0549,-3.535702 0.19298,-7.124117 0.43945,-10.796875 0.24664,-3.645351 0.35157,-7.292212 0.35157,-10.910156 0,-3.289045 -0.35174,-6.249629 -1.03711,-8.88086 -0.71265,-2.603827 -1.91989,-4.874429 -3.5918,-6.765625 -1.69933,-1.891196 -3.9756,-3.343223 -6.85351,-4.384765 -2.90531,-1.014117 -6.46836,-1.53711 -10.74415,-1.53711 z M -645.5,-57.058594 V 4.609375 h 16.03711 v -61.667969 z m -465.9746,11.101563 c 3.6178,0 6.2773,1.179828 7.9492,3.591797 1.6719,2.384559 2.3581,5.780496 2.0293,10.220703 h -22.9394 c 0.4111,-4.193531 1.6181,-7.538946 3.6464,-10.060547 2.0282,-2.494189 5.1209,-3.751953 9.3145,-3.751953 z m 156.53515,0.765625 c 4.52243,0 7.72791,1.755425 9.61914,5.236328 1.86376,3.50831 2.82031,8.084227 2.82031,13.757812 0,6.578074 -1.01077,11.373658 -3.06641,14.416016 -2.05566,3.0697793 -5.17952,4.5820312 -9.37304,4.5820312 -2.22011,0 -4.13882,-0.4703876 -5.72852,-1.4296874 -1.61709,-0.9318931 -2.90587,-2.2712988 -3.89258,-3.9980468 -0.98672,-1.726748 -1.72735,-3.75823 -2.2207,-6.060547 -0.49333,-2.302334 -0.73828,-4.823651 -0.73828,-7.537109 0,-6.742523 1.09238,-11.590714 3.3125,-14.523438 2.2475,-2.960148 5.32072,-4.443359 9.26758,-4.443359 z m 102.47656,0 c 4.52242,0 7.72794,1.755425 9.61914,5.236328 1.86378,3.50831 2.82617,8.084227 2.82617,13.757812 0,6.578074 -1.01663,11.373658 -3.07226,14.416016 -2.05564,3.0697793 -5.17958,4.5820312 -9.37305,4.5820312 -2.22012,0 -4.13881,-0.4703876 -5.72852,-1.4296874 -1.61709,-0.9318931 -2.90389,-2.2712988 -3.89062,-3.9980468 -0.98672,-1.726748 -1.7293,-3.75823 -2.22266,-6.060547 -0.49336,-2.302334 -0.73828,-4.823651 -0.73828,-7.537109 0,-6.742523 1.12566,-11.590714 3.31836,-14.523438 2.24749,-2.960148 5.31484,-4.443359 9.26172,-4.443359 z m -324.73441,0.21875 c 2.2201,0 4.026,0.247021 5.4239,0.685547 1.3979,0.438546 2.6867,1.12481 3.8379,2.029297 v 26.15039 c -0.7675,2.877906 -2.029,5.09408 -3.8379,6.6015626 -1.809,1.5074651 -4.2739,2.2753906 -7.3985,2.2753906 -4.029,0 -6.9644,-1.6173987 -8.8281,-4.8242192 -1.8364,-3.206803 -2.7676,-7.425035 -2.7676,-12.6875 0,-7.400331 1.1255,-12.609989 3.4004,-15.652343 2.2476,-3.042358 5.6475,-4.578125 10.1699,-4.578125 z m 491.62699,0 c 7.31814,0 10.96281,5.864665 10.99023,17.65039 0,6.906972 -1.15093,11.955415 -3.39844,15.107422 -2.24753,3.1519896 -5.56197,4.7363284 -9.91992,4.7363284 -1.72676,0 -3.37535,-0.1048125 -4.88281,-0.3515625 -1.50747,-0.2466793 -2.9285,-0.7132942 -4.24414,-1.3710938 V -36.089844 c 0.98672,-2.877906 2.40775,-5.072549 4.24414,-6.607422 1.83638,-1.507482 4.25083,-2.27539 7.21094,-2.27539 z m 99.85937,22.324218 c 1.22313,0.01734 2.47357,0.08559 3.74805,0.208985 v 8.029297 c -0.90448,1.644524 -2.30611,3.205619 -4.19727,4.6308591 -1.89123,1.4526655 -4.4377,2.1679688 -7.64453,2.1679688 -2.38455,0 -4.27807,-0.6336576 -5.62109,-1.921875 -1.34303,-1.2881999 -2.0293,-3.0668239 -2.0293,-5.3691409 0,-1.64452 0.5209,-2.989659 1.58985,-4.058594 1.06892,-1.068933 2.52307,-1.891227 4.33203,-2.466796 1.80896,-0.57559 3.89096,-0.960548 6.2207,-1.125 1.17855,-0.08228 2.37846,-0.112833 3.60156,-0.0957 z" />
      <path
         id="Trazado_9244"
         class="st3"
         d="m -1420.3146,-214.81699 c -0.053,35.16406 -28.8075,63.62753 -64.2792,63.51301 -35.4721,-0.11456 -64.1182,-28.57801 -64.0645,-63.74216 0.053,-35.16408 28.861,-63.57027 64.2792,-63.51298 35.4183,0.0574 64.1182,28.57797 64.0645,63.74213"
         style="fill:#ffb500;fill-opacity:1;stroke-width:5.54798"
         clip-path="url(#SVGID_00000132803911024867366950000017294592350958354089_)" />
      <path
         id="Trazado_9245"
         class="st4"
         d="m -1291.9708,-210.23539 c -0.9137,-8.4188 -8.0081,-14.54672 -15.9623,-13.68764 -2.7948,0.17172 -5.536,1.14536 -7.8469,2.86351 -0.1622,0.11455 -0.8062,0.63002 -0.8062,0.63002 -61.0545,47.41993 -117.3259,101.48335 -167.9002,161.273768 -50.628,-59.847688 -106.8995,-113.911118 -168.0078,-161.388318 -0.2141,-0.17195 -0.4838,-0.40096 -0.6988,-0.57274 -2.3111,-1.71813 -5.0519,-2.6917 -7.8468,-2.86351 -7.9543,-0.85908 -15.0487,5.26884 -15.9624,13.68764 -0.16,2.46263 0.2688,4.98256 1.2901,7.21611 0,0.0574 0.6984,1.31717 0.6984,1.37445 39.2343,74.33713 86.3151,143.634513 140.3829,206.5175463 8.6529,10.0796227 17.4671,19.9874217 26.4427,29.7234187 13.3286,13.859464 34.6657,13.63039 47.7796,-0.515447 8.8679,-9.564175 17.521,-19.300172 26.0125,-29.2652229 54.0679,-62.8257821 101.1487,-132.1231651 140.3827,-206.4602951 0,-0.0574 0.699,-1.31718 0.699,-1.37445 1.0746,-2.23355 1.5047,-4.6962 1.3435,-7.15884"
         style="fill:#5bc500;fill-opacity:1;stroke-width:5.54798"
         clip-path="url(#SVGID_00000132803911024867366950000017294592350958354089_)" />
      <path
         id="Trazado_9246"
         class="st5"
         d="m -1404.9434,43.587616 c 14.8875,-31.498814 34.9881,-59.847709 59.3885,-83.672274 23.2181,-22.793665 49.7145,-41.52116 78.5219,-55.32335 0.1622,-0.114558 0.3762,-0.171708 0.5372,-0.229095 1.2902,-0.572706 2.6338,-0.859021 4.0313,-0.973579 6.5565,-0.687292 12.4688,4.352538 13.2211,11.396846 0.1623,2.233546 -0.2687,4.467071 -1.2898,6.414254 l -0.3224,0.572702 c -15.4251,27.948051 -34.4509,53.547964 -56.4326,75.9980042 -23.5942,24.1681788 -50.2518,44.6710238 -79.2205,60.9358558 -2.8486,2.00447 -6.3959,2.748993 -9.728,2.00447 -5.267,-0.916347 -9.2442,-5.440709 -9.7278,-11.110494 -0.2689,-2.119019 0.1082,-4.238015 1.0211,-6.013385 m -159.0324,0 c -14.8874,-31.498815 -34.9883,-59.847711 -59.4422,-83.729527 -23.2181,-22.793664 -49.7146,-41.52118 -78.5221,-55.323347 -0.16,-0.114557 -0.3761,-0.171717 -0.5372,-0.229104 -1.2899,-0.572675 -2.6336,-0.859022 -4.0311,-0.973549 -6.5569,-0.687319 -12.469,4.409791 -13.2214,11.396824 -0.16,2.233547 0.2689,4.46706 1.29,6.414278 l 0.3224,0.57268 c 15.4248,27.948047 34.4507,53.54796 56.4327,75.9980235 23.5941,24.1681565 50.2518,44.6710025 79.2204,60.9358325 2.8487,2.00447 6.3959,2.74897 9.7281,2.00447 5.267,-0.916323 9.2442,-5.44071 9.7278,-11.110494 0.3225,-2.061744 -0.055,-4.18074 -0.9674,-5.956111"
         style="fill:#418fe9;fill-opacity:1;stroke-width:5.54798"
         clip-path="url(#SVGID_00000132803911024867366950000017294592350958354089_)" />
    </g>
  </g>
  <metadata
     id="metadata18907">
    <rdf:RDF>
      <cc:Work
         rdf:about="">
        <dc:title>Banco Agrario de Colombia logo</dc:title>
        <cc:license
           rdf:resource="http://scripts.sil.org/OFL" />
        <dc:date>24-feb-2023</dc:date>
      </cc:Work>
      <cc:License
         rdf:about="http://scripts.sil.org/OFL">
        <cc:permits
           rdf:resource="http://scripts.sil.org/pub/OFL/Reproduction" />
        <cc:permits
           rdf:resource="http://scripts.sil.org/pub/OFL/Distribution" />
        <cc:permits
           rdf:resource="http://scripts.sil.org/pub/OFL/Embedding" />
        <cc:permits
           rdf:resource="http://scripts.sil.org/pub/OFL/DerivativeWorks" />
        <cc:requires
           rdf:resource="http://scripts.sil.org/pub/OFL/Notice" />
        <cc:requires
           rdf:resource="http://scripts.sil.org/pub/OFL/Attribution" />
        <cc:requires
           rdf:resource="http://scripts.sil.org/pub/OFL/ShareAlike" />
        <cc:requires
           rdf:resource="http://scripts.sil.org/pub/OFL/DerivativeRenaming" />
        <cc:requires
           rdf:resource="http://scripts.sil.org/pub/OFL/BundlingWhenSelling" />
      </cc:License>
    </rdf:RDF>
  </metadata>
</svg>
